#N canvas 60 60 1400 950 12;
#X text 38 44 Interactive call-and-response system with live monitor \, phrase capture \, phrase-end detection \, and transformed response.;
#X obj 38 204 s keyboard_events;
#X obj 1269 347 bng 85 250 50 0 empty empty RESET_SYSTEM 0 -10 0 12 #e46485 #4d4d4d #373737;
#X msg 1214 501 clear;
#X msg 1274 501 -1;
#X msg 1324 501 0;
#X msg 1374 501 0;
#X obj 1214 535 s clear;
#X obj 1274 569 s reset_capture_counter;
#X obj 1323 535 s reset_pitch;
#X obj 1407 546 s response_tgl_ctrl;
#X text 1892 568 Manual recall test buttons;
#X msg 1881 606 0;
#X msg 1932 606 1;
#X msg 1972 606 2;
#X msg 2012 606 3;
#X msg 2052 606 4;
#X msg 2092 606 5;
#X msg 2132 606 6;
#X msg 2172 606 7;
#X obj 2032 656 s manual_recall;
#X obj 2096 62 r phrase_length;
#X obj 2096 97 print phrase_length;
#X obj 2276 62 r response_tgl_ctrl;
#X obj 2276 97 print response_tgl_ctrl;
#X obj 1989 312 r response_tgl_ctrl;
#X obj 1998 357 tgl 65 0 empty empty RESPONSE_ON/OFF 0 -10 0 12 #e4e4e4 #4d4d4d #373737 0 1;
#X obj 1998 442 s response_tgl_state;
#X text 62 807 Subpatches below;
#N canvas 120 120 760 760 capture 0;
#X text 90 46 CAPTURE SUBPATCH;
#X text 90 85 Handles MIDI note-on filtering \, pitch latch \, capture counter \, phrase length \, and packed storage output.;
#X obj 132 205 r keyboard_events;
#X obj 132 245 unpack 0 0;
#X obj 308 294 print velocity;
#X obj 132 309 f;
#X obj 182 328 r reset_pitch;
#X obj 350 198 > 0;
#X obj 350 263 del 0;
#X obj 350 231 sel 1;
#X obj 132 359 t f b;
#X obj 69 408 print pitch;
#X obj 31 438 s captured_pitch;
#X obj 312 511 f;
#X obj 354 478 r reset_capture_counter;
#X obj 312 549 + 1;
#X obj 330 603 % 8;
#X obj 312 647 t f f f;
#X obj 312 713 print index;
#X obj 312 746 + 1;
#X obj 312 782 s phrase_length;
#X obj 520 619 pack 0 0;
#X obj 520 653 print packed_store;
#X obj 520 689 s packed_pair;
#X obj 147 671 t b b;
#X obj 175 858 pack 0 0;
#X obj 175 920 print packed_timing;
#X obj 172 954 s packed_timing_pair;
#X text 533 727 pitch and index;
#X text 172 994 timing and index;
#X obj 55 782 print onset_ms;
#X obj 175 742 realtime;
#X obj 193 635 sel 0;
#X obj 699 483 t b b b b;
#X obj 772 598 s clear;
#X obj 723 639 s reset_capture_counter;
#X obj 638 590 s reset_pitch;
#X msg 772 530 clear;
#X msg 723 530 -1;
#X msg 685 530 0;
#X obj 698 340 r response_tgl_ctrl;
#X obj 698 390 f;
#X obj 698 431 sel 1;
#X text 678 303 loop start/stop;
#X text 814 389 only if loop is active (1) do we reset everything;
#X text 81 1025 base skeleton \; will be updated in the future -> it incorporates human timing, f 51;
#X msg 874 548 0;
#X obj 907 575 s response_tgl_ctrl;
#X obj 826 509 t f f;
#X obj 902 522 print RESP_TGL_from_capture;
#X connect 2 0 3 0;
#X connect 3 0 5 1;
#X connect 3 1 4 0;
#X connect 3 1 7 0;
#X connect 5 0 10 0;
#X connect 6 0 5 1;
#X connect 7 0 9 0;
#X connect 8 0 5 0;
#X connect 9 0 8 0;
#X connect 10 0 21 0;
#X connect 10 0 11 0;
#X connect 10 0 12 0;
#X connect 10 1 13 0;
#X connect 10 1 24 0;
#X connect 10 1 41 0;
#X connect 13 0 15 0;
#X connect 14 0 13 1;
#X connect 15 0 16 0;
#X connect 16 0 13 1;
#X connect 16 0 17 0;
#X connect 17 0 18 0;
#X connect 17 0 32 0;
#X connect 17 0 25 1;
#X connect 17 1 21 1;
#X connect 17 2 19 0;
#X connect 19 0 20 0;
#X connect 21 0 22 0;
#X connect 21 0 23 0;
#X connect 24 0 31 0;
#X connect 24 1 31 1;
#X connect 25 0 26 0;
#X connect 25 0 27 0;
#X connect 31 0 30 0;
#X connect 31 0 25 0;
#X connect 32 0 31 1;
#X connect 32 1 24 0;
#X connect 33 0 48 0;
#X connect 33 1 37 0;
#X connect 33 2 38 0;
#X connect 33 3 39 0;
#X connect 37 0 34 0;
#X connect 38 0 35 0;
#X connect 39 0 36 0;
#X connect 40 0 41 1;
#X connect 41 0 42 0;
#X connect 42 0 33 0;
#X connect 46 0 47 0;
#X connect 48 0 46 0;
#X connect 48 1 49 0;
#X restore 62 858 pd capture;
#N canvas 180 140 700 560 storage 0;
#X text 76 94 STORAGE SUBPATCH;
#X text 76 130 Owns the phrase text buffer \, writes packed pitch/index pairs \, and supports manual recall testing.;
#X obj 288 200 r packed_pair;
#X obj 288 238 unpack 0 0;
#X obj 288 280 text set phrase;
#X obj 518 200 r manual_recall;
#X obj 518 238 text get phrase;
#X obj 518 274 print recall;
#X obj 299 390 r packed_timing_pair;
#X obj 299 438 unpack 0 0;
#X obj 299 498 text set timing;
#X connect 2 0 3 0;
#X connect 3 0 4 0;
#X connect 3 1 4 1;
#X connect 5 0 6 0;
#X connect 6 0 7 0;
#X connect 8 0 9 0;
#X connect 9 0 10 0;
#X connect 9 1 10 1;
#X restore 224 858 pd storage;
#N canvas 240 120 1040 860 response_audio 0;
#X text 245 180 RESPONSE/AUDIO SUBPATCH;
#X text 245 202 Contains live monitor audio \, phrase-end detector \, replay logic \, transformed response \, and output mix to dac~.;
#X obj 245 252 r captured_pitch;
#X obj 245 286 t f b b;
#X obj 245 322 mtof;
#X obj 245 358 osc~;
#X obj 245 396 *~;
#X obj 319 358 r live_line_ctrl;
#X obj 331 414 line~;
#X obj 493 256 r captured_pitch;
#X obj 493 290 t b b;
#X msg 693 547 1;
#X obj 743 587 s response_tgl_ctrl;
#X msg 647 557 -1;
#X obj 647 610 s replay_reset;
#X msg 603 557 0 0;
#X obj 613 639 s live_line_ctrl;
#X obj 897 168 f;
#X obj 908 135 r replay_reset;
#X obj 897 202 + 1;
#X obj 879 853 % 12;
#X obj 879 885 sel 0 1 2 3 4 5 6 7 8 9 10 11;
#X obj 950 202 r phrase_length;
#X obj 245 482 s~ live_audio;
#X obj 654 718 r response_mode;
#X obj 631 769 == 0;
#X obj 684 769 == 1, f 6;
#X obj 850 727 t f f;
#X obj 670 825 spigot;
#X obj 889 769 spigot;
#X obj 894 997 s final_response_pitch;
#X obj 942 1062 mtof;
#X obj 1000 1030 r final_response_pitch;
#X text 954 758 transformed mode;
#X text 571 824 mirror mode;
#X obj 282 610 loadbang;
#X msg 285 650 0;
#X obj 284 694 s response_mode;
#X obj 284 734 print response_mode;
#X obj 1159 1166 line~;
#X obj 1087 1622 r~ live_audio;
#X obj 1006 1464 *~;
#X obj 1006 1637 dac~;
#X obj 942 1094 t f f;
#X obj 493 360 delay 2000;
#X obj 897 245 %;
#X obj 612 405 r phrase_length;
#X obj 631 475 sel 1;
#X obj 631 356 f;
#X obj 431 398 s phase_end;
#X obj 631 309 r phase_end;
#X text 510 474 loop-start logic \; checks if phase \; is >=2 notes;
#X obj 583 1030 -;
#X obj 629 982 f;
#X obj 506 1120 expr if($f1 > 0 \, 1 \, if($f1 < 0 \, -1 \, 0));
#X obj 506 1166 sel -1 0 1;
#X text 380 995 three cases: \; -1 = down \; 0 = same \; 1 = up;
#X obj 387 1082 loadbang;
#X msg 387 1113 72;
#X obj 417 1333 - 2;
#X obj 627 1333 + 2;
#X text 674 981 previous input pitch;
#X text 287 1273 output memory f;
#X obj 494 1205 t b;
#X obj 529 1205 t b;
#X obj 568 1205 t b;
#X obj 411 1274 f;
#X obj 520 1284 f;
#X obj 627 1264 f;
#X text 371 1320 f down;
#X text 674 1323 f up;
#X text 529 1320 f same;
#X obj 520 1489 s transformed_candidate;
#X obj 878 810 r transformed_candidate;
#X obj 600 924 t f f b;
#X obj 236 1480 r reset_capture_counter;
#X msg 237 1525 0;
#X obj 494 940 r reset_pitch;
#X msg 539 976 0;
#X obj 297 1085 r reset_pitch;
#X obj 1290 1177 r response_cutoff;
#X obj 927 1127 osc~;
#X obj 987 1130 phasor~;
#X obj 1168 1293 sig~;
#X text 1049 1131 bright;
#X text 865 1128 smooth;
#X obj 992 1378 +~;
#X text 1411 1217 potentiometer values: \; dull -> warm -> buzzy -> sharp;
#X obj 1059 485 delay;
#X obj 1059 532 s play_next;
#X obj 832 135 r play_next;
#X obj 1068 447 t b f;
#X obj 631 514 t b b b b;
#X obj 524 557 s play_next;
#X obj 897 274 t f f;
#X msg 864 924 60;
#X msg 904 923 62;
#X msg 942 923 63;
#X msg 982 923 65;
#X msg 1022 923 67;
#X msg 1062 923 68;
#X msg 1097 923 72;
#X obj 641 1062 s prev_input;
#X obj 520 1348 + 0;
#X text 1031 318 FIXED TIME PATH;
#X msg 1443 652 0;
#X msg 1369 663 -1;
#X msg 1337 723 stop;
#X msg 1283 723 stop;
#X obj 1442 682 s response_tgl_ctrl;
#X obj 1383 753 s replay_reset;
#X obj 631 440 >= 3;
#X obj 1487 553 r global_reset;
#X obj 858 365 text get phrase;
#X obj 825 405 route float;
#X obj 373 322 1 20 \, 0 300 20;
#X obj 894 639 s response_line_ctrl;
#X obj 860 514 t f b;
#X obj 909 601 1 10 \, 0 300 20;
#X msg 1563 750 0 20;
#X obj 1563 788 s response_line_ctrl;
#X obj 1369 597 t b b b b b;
#X obj 1221 788 s phase_end_stop;
#X obj 510 331 r phase_end_stop;
#X obj 1422 1177 print response_cutoff;
#X obj 1337 802 s replay_delay_stop;
#X obj 1151 447 r replay_delay_stop;
#X obj 1006 1586 *~;
#X obj 1262 1439 r response_volume;
#X obj 1262 1500 / 127;
#X obj 1152 1124 r response_line_ctrl;
#X obj 1262 1601 line~;
#X obj 1262 1565 pack 0 30;
#X obj 1073 356 r tempo;
#X obj 1059 405 max 40;
#X obj 1415 153 r tempo_mode;
#X obj 1420 194 sel 0 1 2 3;
#X msg 1386 239 180;
#X obj 1436 313 s tempo;
#X obj 1528 180 print tempo_mode;
#X msg 1448 239 160;
#X msg 1510 239 120;
#X msg 1572 239 100;
#X obj 1290 1254 / 127;
#X obj 1290 1385 sig~;
#X obj 1290 1337 expr 1 - $f1;
#X text 868 1188 sine;
#X text 1041 1191 phasor;
#X obj 987 1177 -~ 0.5;
#X obj 1262 1530 * 0.8;
#X text 1165 1263 x;
#X text 1392 1296 1 - x;
#X obj 1168 1324 print phasor_gain;
#X obj 1352 1370 print sine_gain;
#X obj 1288 1216 clip 0 127;
#X obj 1006 1516 lop~ 1200;
#X obj 1052 1310 *~;
#X obj 961 1324 *~;
#X obj 992 1411 *~ 0.7;
#X obj 245 432 *~ 0.2;
#X obj 1432 621 t f f;
#X obj 776 190 print PLAY_NEXT;
#X connect 2 0 3 0;
#X connect 3 0 4 0;
#X connect 3 1 115 0;
#X connect 3 2 10 0;
#X connect 4 0 5 0;
#X connect 5 0 6 0;
#X connect 6 0 159 0;
#X connect 7 0 8 0;
#X connect 8 0 6 1;
#X connect 9 0 10 0;
#X connect 10 0 44 0;
#X connect 11 0 12 0;
#X connect 13 0 14 0;
#X connect 15 0 16 0;
#X connect 17 0 19 0;
#X connect 18 0 17 1;
#X connect 19 0 17 1;
#X connect 19 0 45 0;
#X connect 20 0 21 0;
#X connect 21 0 95 0;
#X connect 21 1 95 0;
#X connect 21 2 96 0;
#X connect 21 3 97 0;
#X connect 21 4 97 0;
#X connect 21 5 98 0;
#X connect 21 6 98 0;
#X connect 21 7 99 0;
#X connect 21 8 100 0;
#X connect 21 9 100 0;
#X connect 21 10 101 0;
#X connect 21 11 101 0;
#X connect 22 0 45 1;
#X connect 24 0 25 0;
#X connect 24 0 26 0;
#X connect 25 0 28 1;
#X connect 26 0 29 1;
#X connect 27 0 28 0;
#X connect 27 1 29 0;
#X connect 28 0 30 0;
#X connect 29 0 74 0;
#X connect 31 0 43 0;
#X connect 32 0 31 0;
#X connect 35 0 36 0;
#X connect 36 0 37 0;
#X connect 36 0 38 0;
#X connect 39 0 41 1;
#X connect 40 0 42 1;
#X connect 40 0 42 0;
#X connect 41 0 155 0;
#X connect 43 0 81 0;
#X connect 43 1 82 0;
#X connect 44 0 49 0;
#X connect 45 0 94 0;
#X connect 46 0 48 1;
#X connect 47 0 92 0;
#X connect 48 0 111 0;
#X connect 50 0 48 0;
#X connect 52 0 54 0;
#X connect 53 0 52 1;
#X connect 53 0 102 0;
#X connect 54 0 55 0;
#X connect 55 0 63 0;
#X connect 55 1 64 0;
#X connect 55 2 65 0;
#X connect 57 0 58 0;
#X connect 58 0 68 1;
#X connect 58 0 66 1;
#X connect 58 0 67 1;
#X connect 59 0 72 0;
#X connect 59 0 66 1;
#X connect 60 0 72 0;
#X connect 60 0 68 1;
#X connect 63 0 66 0;
#X connect 64 0 67 0;
#X connect 65 0 68 0;
#X connect 66 0 59 0;
#X connect 67 0 103 0;
#X connect 68 0 60 0;
#X connect 73 0 20 0;
#X connect 74 0 52 0;
#X connect 74 1 53 1;
#X connect 74 2 53 0;
#X connect 75 0 76 0;
#X connect 77 0 78 0;
#X connect 78 0 53 1;
#X connect 79 0 58 0;
#X connect 80 0 124 0;
#X connect 80 0 154 0;
#X connect 81 0 157 0;
#X connect 82 0 148 0;
#X connect 83 0 156 1;
#X connect 86 0 158 0;
#X connect 88 0 89 0;
#X connect 90 0 17 0;
#X connect 90 0 161 0;
#X connect 91 0 88 0;
#X connect 91 1 88 1;
#X connect 92 0 93 0;
#X connect 92 1 15 0;
#X connect 92 2 13 0;
#X connect 92 3 11 0;
#X connect 94 0 113 0;
#X connect 94 1 134 0;
#X connect 95 0 30 0;
#X connect 96 0 30 0;
#X connect 97 0 30 0;
#X connect 98 0 30 0;
#X connect 99 0 30 0;
#X connect 100 0 30 0;
#X connect 101 0 30 0;
#X connect 103 0 67 1;
#X connect 103 0 72 0;
#X connect 105 0 109 0;
#X connect 106 0 110 0;
#X connect 107 0 125 0;
#X connect 108 0 122 0;
#X connect 111 0 47 0;
#X connect 112 0 121 0;
#X connect 113 0 114 0;
#X connect 114 0 117 0;
#X connect 115 0 8 0;
#X connect 117 0 27 0;
#X connect 117 1 118 0;
#X connect 118 0 116 0;
#X connect 119 0 120 0;
#X connect 121 0 108 0;
#X connect 121 1 107 0;
#X connect 121 2 106 0;
#X connect 121 3 160 0;
#X connect 121 4 119 0;
#X connect 123 0 44 0;
#X connect 126 0 88 0;
#X connect 127 0 42 0;
#X connect 127 0 42 1;
#X connect 128 0 129 0;
#X connect 129 0 149 0;
#X connect 130 0 39 0;
#X connect 131 0 127 1;
#X connect 132 0 131 0;
#X connect 133 0 134 1;
#X connect 134 0 91 0;
#X connect 135 0 136 0;
#X connect 135 0 139 0;
#X connect 136 0 137 0;
#X connect 136 1 140 0;
#X connect 136 2 141 0;
#X connect 136 3 142 0;
#X connect 137 0 138 0;
#X connect 140 0 138 0;
#X connect 141 0 138 0;
#X connect 142 0 138 0;
#X connect 143 0 83 0;
#X connect 143 0 145 0;
#X connect 143 0 152 0;
#X connect 144 0 157 1;
#X connect 145 0 153 0;
#X connect 145 0 144 0;
#X connect 148 0 156 0;
#X connect 149 0 132 0;
#X connect 154 0 143 0;
#X connect 155 0 127 0;
#X connect 156 0 86 1;
#X connect 157 0 86 0;
#X connect 158 0 41 0;
#X connect 159 0 23 0;
#X connect 160 0 105 0;
#X restore 386 858 pd response_audio;
#X text 38 18 MUMT 306 FINAL PROJECT;
#X obj 38 90 keyboard 16 80 4 2 0 0 empty empty;
#X obj 2235 169 text define phrase;
#X obj 2235 139 r clear;
#X obj 261 413 hradio 41 1 0 2 empty empty empty 0 -11 0 12 #a2fce8 #000000 #000000 0;
#X obj 261 527 s response_mode;
#X obj 2374 169 text define timing;
#X text 2376 132 timing buffer;
#X obj 372 1638 print arduino_num;
#X obj 516 2048 f;
#X obj 566 1991 loadbang;
#X msg 567 2021 0;
#X obj 257 1597 comport 5 115200;
#X msg 262 1550 open 5;
#X obj 1407 522 s live_line_ctrl;
#X obj 525 2086 + 1;
#X msg 346 1545 close;
#X text 224 595 MODE 1: (left) MIRROR \; MODE 2: (right) ANSWER;
#X obj 990 1189 change;
#X obj 525 2134 % 2;
#X obj 322 1675 t f f;
#X text 663 1794 buttons logic;
#X text 205 1777 pot logic;
#X obj 2082 135 r response_cutoff;
#X obj 2082 169 print cutoff;
#X msg 1407 492 0 500;
#X obj 1463 492 s global_reset;
#X obj 1121 1283 spigot;
#X obj 921 1301 spigot;
#X obj 884 1404 s response_volume;
#X obj 910 1377 print response_volume;
#X text 1076 1420 POT MODE 2: TIMBRE;
#X text 829 1421 POT MODE 1: VOLUME;
#X text 238 234 DEMO PANEL, f 28;
#X text 1985 281 TESTING: RESPONSE TOGGLE ON/OFF;
#X obj 468 415 hradio 41 1 0 2 empty empty empty 0 -11 0 12 #b0b5fc #000000 #000000 0;
#X obj 554 555 s pot_mode;
#X text 1937 528 TESTING :;
#X obj 692 423 hsl 233 36 0 127 0 0 empty empty empty -2 -8 0 10 #e4d2e4 #4d4d4d #373737 0 1;
#X obj 261 317 loadbang;
#X msg 274 342 0;
#X text 234 668 #5 SELECTOR CONTROL;
#X obj 47 413 tgl 53 0 empty empty empty 17 7 0 10 #a7e495 #4d4d4d #373737 0 1;
#X obj 47 545 s pot_source;
#X text 25 588 POT SOURCE \; 0 = PD SLIDER \; 1 = ARDUINO;
#X obj 798 817 r virtual_pot;
#X obj 798 865 spigot;
#X obj 887 935 s pot_value;
#X obj 1016 865 spigot;
#X obj 889 829 == 0;
#X obj 926 783 r pot_source;
#X text 919 725 POT SOURCE LOGIC;
#X obj 1107 829 == 1;
#X obj 954 1114 r pot_value;
#X obj 1054 1189 print pot_value;
#X floatatom 1072 1156 5 0 0 0 - - - 12;
#X obj 754 1205 loadbang;
#X msg 754 1236 90;
#X text 699 768 decides whether INPUT is \; from virtual pot or BOARD;
#X obj 689 475 i;
#X obj 666 501 s virtual_pot;
#X obj 1004 1255 r pot_mode;
#X text 878 1006 POT MODE LOGIC;
#X listbox 1042 1295 9 0 0 0 - - - 0;
#X listbox 1260 1254 9 0 0 0 - - - 0;
#X floatatom 1205 1394 5 0 0 0 - - - 12;
#X obj 1214 1214 r pot_mode;
#X obj 1202 1259 == 1;
#X text 457 595 MODE 1: (left) : 0 = VOLUME \; MODE 2: (right) : 1 = RESPONSE CUTOFF, f 34;
#X obj 1111 1347 print response_cutoff;
#X obj 1121 1323 s response_cutoff;
#X obj 975 829 r physical_pot;
#X obj 567 524 f;
#X obj 568 460 bng 25 250 50 0 empty empty empty 17 7 0 10 #e4e4e4 #4d4d4d #373737;
#X obj 568 431 r global_reset;
#X obj 832 1893 s global_reset;
#X obj 367 502 f;
#X obj 377 464 bng 25 250 50 0 empty empty empty 17 7 0 10 #e4e4e4 #4d4d4d #373737;
#X obj 377 435 r global_reset;
#X obj 295 470 t f f;
#X obj 958 367 loadbang;
#X text 237 268 #2 RESPONSE MODE SELECTOR;
#X text 485 271 #3 POT MODE SELECTOR;
#X text 54 271 #1 POT SOURCE;
#X text 989 271 #5 TEMPO / BASE DELAY;
#X text 1269 271 #6 RESET BUTTON;
#X text 722 595 the pot controls the MODE you chose \; (volume or response cutoff);
#X text 1006 597 this controls the speed;
#X obj 994 423 hradio 41 1 0 4 empty empty empty 0 -11 0 12 #fcc8a9 #000000 #000000 0;
#X msg 972 395 0;
#X obj 994 498 s tempo_mode;
#X text 519 60 STEPS: \; 1- CHOOSE RESPONSE MODE \; 2- CHOOSE POT MODE \; 3- CHOOSE TEMPO MODE \; 4- PLAY PHRASE \; 5- MOVE SLIDER \; 6- Play around with controls;
#X obj 1563 535 s reset_tempo;
#X obj 1065 396 r reset_tempo;
#X obj 1269 447 t b b b b b b b b;
#X obj 1672 529 s UI_reset;
#X obj 506 377 r UI_reset;
#X msg 1563 504 0;
#X msg 1672 504 0;
#X obj 994 1304 == 0;
#X text 727 271 #4 VIRTUAL POT 0 - 600;
#X text 1063 1006 VOLUME VS CUTOFF;
#X obj 1299 1323 f;
#X obj 1320 1362 s cutoff_mem;
#X obj 712 1336 f;
#X obj 712 1377 s volume_mem;
#X obj 776 1301 t f f;
#X obj 1239 1305 t f f;
#X obj 744 1093 sel 0 1;
#X obj 716 1128 bng 25 250 50 0 empty empty empty 17 7 0 10 #e4e4e4 #4d4d4d #373737;
#X obj 693 363 r ui_pot;
#X obj 688 1404 s ui_pot;
#X obj 829 1128 bng 25 250 50 0 empty empty empty 17 7 0 10 #e4e4e4 #4d4d4d #373737;
#X obj 1309 1386 s ui_pot;
#X obj 685 1246 loadbang;
#X obj 1351 1251 loadbang;
#X msg 1354 1285 0;
#X floatatom 947 1347 5 0 0 0 - - - 12;
#X obj 490 466 t b f;
#X msg 568 493 0;
#X obj 2536 128 r global_reset;
#X obj 2541 205 s volume_mem;
#X obj 2679 128 r global_reset;
#X obj 2684 205 s cutoff_mem;
#X msg 2680 166 0;
#X obj 425 527 s recall_pot_mode;
#X obj 744 1015 r pot_mode;
#X obj 745 1056 f;
#X obj 611 1024 r recall_pot_mode;
#X msg 2537 166 41;
#X msg 688 1280 41;
#X text 1065 317 4 OPTIONS: \; MODE 0 \; slowest MODE 3 \; fastest;
#X obj 630 1861 sel 250 251 252 253;
#X text 198 1477 ARDUINO INTEGRATION;
#X obj 510 1982 bng 25 250 50 0 empty empty empty 17 7 0 10 #e4e4e4 #4d4d4d #373737;
#X obj 538 2181 t f f;
#X obj 543 2238 s response_mode;
#X obj 602 2031 r global_reset;
#X obj 602 2172 r global_reset;
#X msg 582 2204 0;
#X obj 717 2057 f;
#X obj 767 2000 loadbang;
#X msg 768 2030 0;
#X obj 726 2095 + 1;
#X obj 726 2143 % 2;
#X obj 711 1991 bng 25 250 50 0 empty empty empty 17 7 0 10 #e4e4e4 #4d4d4d #373737;
#X obj 739 2190 t f f;
#X obj 803 2040 r global_reset;
#X obj 803 2181 r global_reset;
#X msg 783 2213 0;
#X obj 744 2247 s pot_mode;
#X obj 930 2048 f;
#X obj 980 1991 loadbang;
#X msg 981 2021 0;
#X obj 939 2086 + 1;
#X obj 924 1982 bng 25 250 50 0 empty empty empty 17 7 0 10 #e4e4e4 #4d4d4d #373737;
#X obj 952 2181 t f f;
#X obj 1016 2031 r global_reset;
#X obj 1016 2172 r global_reset;
#X msg 996 2204 0;
#X obj 939 2134 % 4;
#X obj 957 2238 s tempo_mode;
#X text 538 2290 response counter;
#X text 729 2290 pot counter;
#X text 939 2290 tempo counter;
#X obj 526 2268 print response_mode;
#X obj 739 2268 print pot_mode;
#X obj 954 2261 print tempo_mode;
#X obj 299 1788 moses 250;
#X obj 222 1880 - 100;
#X obj 220 1936 clip 0 127;
#X obj 220 2040 print pot_value_ard;
#X obj 219 1994 s physical_pot;
#X obj 2810 122 loadbang;
#X msg 2813 162 0;
#X obj 2814 201 s response_tgl_ctrl;
#X obj 775 349 loadbang;
#X obj 783 374 41;
#X obj 1889 75 loadbang;
#X obj 1886 127 t b b;
#X obj 1853 212 s response_volume;
#X msg 1862 169 41;
#X msg 1923 158 0;
#X obj 1926 183 s response_cutoff;
#X connect 2 0 126 0;
#X connect 3 0 7 0;
#X connect 4 0 8 0;
#X connect 5 0 9 0;
#X connect 6 0 10 0;
#X connect 12 0 20 0;
#X connect 13 0 20 0;
#X connect 14 0 20 0;
#X connect 15 0 20 0;
#X connect 16 0 20 0;
#X connect 17 0 20 0;
#X connect 18 0 20 0;
#X connect 19 0 20 0;
#X connect 21 0 22 0;
#X connect 23 0 24 0;
#X connect 25 0 26 0;
#X connect 26 0 27 0;
#X connect 33 0 1 0;
#X connect 35 0 34 0;
#X connect 35 0 38 0;
#X connect 36 0 111 0;
#X connect 41 0 47 0;
#X connect 42 0 43 0;
#X connect 43 0 41 1;
#X connect 44 0 52 0;
#X connect 44 1 40 0;
#X connect 45 0 44 0;
#X connect 47 0 51 0;
#X connect 48 0 44 0;
#X connect 50 0 60 0;
#X connect 50 0 59 0;
#X connect 51 0 167 0;
#X connect 52 0 200 0;
#X connect 55 0 56 0;
#X connect 57 0 46 0;
#X connect 59 0 97 0;
#X connect 59 0 139 0;
#X connect 59 0 102 0;
#X connect 59 0 101 0;
#X connect 60 0 138 0;
#X connect 60 0 149 0;
#X connect 60 0 61 0;
#X connect 60 0 62 0;
#X connect 67 0 150 0;
#X connect 70 0 91 0;
#X connect 71 0 72 0;
#X connect 72 0 36 0;
#X connect 72 0 67 0;
#X connect 72 0 75 0;
#X connect 74 0 75 0;
#X connect 77 0 78 0;
#X connect 78 0 79 0;
#X connect 80 0 79 0;
#X connect 81 0 78 1;
#X connect 82 0 81 0;
#X connect 82 0 84 0;
#X connect 84 0 80 1;
#X connect 85 0 87 0;
#X connect 85 0 50 0;
#X connect 85 0 86 0;
#X connect 88 0 89 0;
#X connect 89 0 61 0;
#X connect 91 0 92 0;
#X connect 93 0 95 0;
#X connect 93 0 131 0;
#X connect 98 0 99 0;
#X connect 98 0 96 0;
#X connect 99 0 59 1;
#X connect 103 0 80 0;
#X connect 104 0 68 0;
#X connect 105 0 151 0;
#X connect 106 0 105 0;
#X connect 108 0 37 0;
#X connect 109 0 108 0;
#X connect 110 0 109 0;
#X connect 111 0 37 0;
#X connect 111 1 108 1;
#X connect 112 0 121 0;
#X connect 120 0 122 0;
#X connect 121 0 120 0;
#X connect 121 0 122 0;
#X connect 125 0 120 0;
#X connect 126 0 3 0;
#X connect 126 1 4 0;
#X connect 126 2 5 0;
#X connect 126 3 6 0;
#X connect 126 4 57 0;
#X connect 126 5 58 0;
#X connect 126 6 129 0;
#X connect 126 7 130 0;
#X connect 128 0 67 0;
#X connect 128 0 36 0;
#X connect 129 0 124 0;
#X connect 130 0 127 0;
#X connect 131 0 60 1;
#X connect 134 0 135 0;
#X connect 134 0 145 0;
#X connect 136 0 137 0;
#X connect 136 0 143 0;
#X connect 138 0 136 0;
#X connect 139 0 134 0;
#X connect 140 0 141 0;
#X connect 140 1 144 0;
#X connect 141 0 136 0;
#X connect 142 0 70 0;
#X connect 144 0 134 0;
#X connect 146 0 162 0;
#X connect 147 0 148 0;
#X connect 148 0 134 1;
#X connect 150 0 157 0;
#X connect 150 1 68 0;
#X connect 151 0 104 0;
#X connect 152 0 161 0;
#X connect 154 0 156 0;
#X connect 156 0 155 0;
#X connect 158 0 159 1;
#X connect 159 0 140 0;
#X connect 160 0 159 0;
#X connect 161 0 153 0;
#X connect 162 0 136 1;
#X connect 164 0 166 0;
#X connect 164 1 177 0;
#X connect 164 2 187 0;
#X connect 164 3 107 0;
#X connect 166 0 41 0;
#X connect 167 0 168 0;
#X connect 167 0 197 0;
#X connect 167 1 41 1;
#X connect 169 0 43 0;
#X connect 170 0 171 0;
#X connect 171 0 168 0;
#X connect 172 0 175 0;
#X connect 173 0 174 0;
#X connect 174 0 172 1;
#X connect 175 0 176 0;
#X connect 176 0 178 0;
#X connect 177 0 172 0;
#X connect 178 0 182 0;
#X connect 178 0 198 0;
#X connect 178 1 172 1;
#X connect 179 0 174 0;
#X connect 180 0 181 0;
#X connect 181 0 182 0;
#X connect 183 0 186 0;
#X connect 184 0 185 0;
#X connect 185 0 183 1;
#X connect 186 0 192 0;
#X connect 187 0 183 0;
#X connect 188 0 193 0;
#X connect 188 0 199 0;
#X connect 188 1 183 1;
#X connect 189 0 185 0;
#X connect 190 0 191 0;
#X connect 191 0 193 0;
#X connect 192 0 188 0;
#X connect 200 0 201 0;
#X connect 200 1 164 0;
#X connect 201 0 202 0;
#X connect 202 0 203 0;
#X connect 202 0 204 0;
#X connect 205 0 206 0;
#X connect 206 0 207 0;
#X connect 208 0 209 0;
#X connect 209 0 70 0;
#X connect 210 0 211 0;
#X connect 211 0 213 0;
#X connect 211 1 214 0;
#X connect 213 0 212 0;
#X connect 214 0 215 0;
